{
  "accessors": [
    {
      "bufferView": 2,
      "componentType": 5126,
      "count": 4670,
      "max": [
        1.2500568628311157,
        0.9520125985145569,
        2.7515676021575928
      ],
      "min": [
        -1.1596919298171997,
        -1.2620503902435303,
        -0.03965568542480469
      ],
      "type": "VEC3"
    },
    {
      "bufferView": 2,
      "byteOffset": 56040,
      "componentType": 5126,
      "count": 4670,
      "max": [
        0.998036801815033,
        0.9997788667678833,
        0.9999540448188782
      ],
      "min": [
        -0.9993680715560913,
        -0.999506950378418,
        -0.9999660849571228
      ],
      "type": "VEC3"
    },
    {
      "bufferView": 3,
      "componentType": 5126,
      "count": 4670,
      "max": [
        0.9998820424079895,
        0.9999475479125977,
        0.9976989030838013,
        1.0
      ],
      "min": [
        -0.9996496438980103,
        -0.9999943971633911,
        -0.9999550580978394,
        -1.0
      ],
      "type": "VEC4"
    },
    {
      "bufferView": 1,
      "componentType": 5126,
      "count": 4670,
      "max": [
        0.9984609484672546,
        0.9981346130371094
      ],
      "min": [
        0.0015027099289000034,
        0.0014989522751420736
      ],
      "type": "VEC2"
    },
    {
      "bufferView": 0,
      "componentType": 5125,
      "count": 20187,
      "type": "SCALAR"
    }
  ],
  "asset": {
    "extras": {
      "author": "belhajalimahdi (https://sketchfab.com/Mahdi_)",
      "license": "CC-BY-4.0 (http://creativecommons.org/licenses/by/4.0/)",
      "source": "https://sketchfab.com/3d-models/mushroom--tree-2a6a292cad734915bc6d48eb09efa430",
      "title": "Mushroom_ Tree"
    },
    "generator": "Sketchfab-16.31.0",
    "version": "2.0"
  },
  "bufferViews": [
    {
      "buffer": 0,
      "byteLength": 80748,
      "name": "floatBufferViews",
      "target": 34963
    },
    {
      "buffer": 0,
      "byteLength": 37360,
      "byteOffset": 80748,
      "byteStride": 8,
      "name": "floatBufferViews",
      "target": 34962
    },
    {
      "buffer": 0,
      "byteLength": 112080,
      "byteOffset": 118108,
      "byteStride": 12,
      "name": "floatBufferViews",
      "target": 34962
    },
    {
      "buffer": 0,
      "byteLength": 74720,
      "byteOffset": 230188,
      "byteStride": 16,
      "name": "floatBufferViews",
      "target": 34962
    }
  ],
  "buffers": [
    {
      "byteLength": 304908,
      "uri": "scene.bin"
    }
  ],
  "extensionsUsed": [
    "KHR_materials_emissive_strength",
    "KHR_materials_specular"
  ],
  "images": [
    {
      "uri": "textures/Mushroom_Tree_baseColor.png"
    },
    {
      "uri": "textures/Mushroom_Tree_metallicRoughness.png"
    },
    {
      "uri": "textures/Mushroom_Tree_emissive.png"
    },
    {
      "uri": "textures/Mushroom_Tree_normal.png"
    }
  ],
  "materials": [
    {
      "doubleSided": true,
      "emissiveFactor": [
        1.0,
        1.0,
        1.0
      ],
      "emissiveTexture": {
        "index": 2
      },
      "extensions": {
        "KHR_materials_emissive_strength": {
          "emissiveStrength": 1.386670892711292
        },
        "KHR_materials_specular": {
          "specularColorFactor": [
            1.0,
            1.0,
            1.0
          ],
          "specularFactor": 0.3154295327376236
        }
      },
      "name": "Mushroom_Tree",
      "normalTexture": {
        "index": 3
      },
      "occlusionTexture": {
        "index": 1
      },
      "pbrMetallicRoughness": {
        "baseColorTexture": {
          "index": 0
        },
        "metallicFactor": 0.0,
        "metallicRoughnessTexture": {
          "index": 1
        }
      }
    }
  ],
  "meshes": [
    {
      "name": "Plane.002_Mushroom_Tree_0",
      "primitives": [
        {
          "attributes": {
            "NORMAL": 1,
            "POSITION": 0,
            "TANGENT": 2,
            "TEXCOORD_0": 3
          },
          "indices": 4,
          "material": 0,
          "mode": 4
        }
      ]
    }
  ],
  "nodes": [
    {
      "children": [
        1
      ],
      "matrix": [
        0.3126676380634308,
        0.0,
        0.0,
        0.0,
        0.0,
        6.942616216663717e-17,
        -0.3126676380634308,
        0.0,
        0.0,
        0.3126676380634308,
        6.942616216663717e-17,
        0.0,
        0.0,
        0.0,
        0.0,
        1.0
      ],
      "name": "Sketchfab_model"
    },
    {
      "children": [
        2
      ],
      "matrix": [
        0.009999999776482582,
        0.0,
        0.0,
        0.0,
        0.0,
        0.0,
        0.009999999776482582,
        0.0,
        0.0,
        -0.009999999776482582,
        0.0,
        0.0,
        0.0,
        0.0,
        0.0,
        1.0
      ],
      "name": "SM_Mushroom_Tree.fbx"
    },
    {
      "children": [
        3
      ],
      "name": "RootNode"
    },
    {
      "children": [
        4
      ],
      "matrix": [
        492.4125671386719,
        0.0,
        0.0,
        0.0,
        0.0,
        -8.022418997930821e-05,
        -492.4125671386654,
        0.0,
        0.0,
        492.4125671386654,
        -8.022418997930821e-05,
        0.0,
        0.0,
        0.0,
        0.0,
        1.0
      ],
      "name": "Plane.002"
    },
    {
      "mesh": 0,
      "name": "Plane.002_Mushroom_Tree_0"
    }
  ],
  "samplers": [
    {
      "magFilter": 9729,
      "minFilter": 9987,
      "wrapS": 10497,
      "wrapT": 10497
    }
  ],
  "scene": 0,
  "scenes": [
    {
      "name": "Sketchfab_Scene",
      "nodes": [
        0
      ]
    }
  ],
  "textures": [
    {
      "sampler": 0,
      "source": 0
    },
    {
      "sampler": 0,
      "source": 1
    },
    {
      "sampler": 0,
      "source": 2
    },
    {
      "sampler": 0,
      "source": 3
    }
  ]
}
